<svg xmlns="http://www.w3.org/2000/svg" viewBox="0 0 1600 900" width="1600" height="900" role="presentation">
  <rect width="1600" height="900" rx="14" fill="#0b0b0f" />
  
    
    <rect width="1600" height="72" fill="#15151d" />
    <circle cx="34" cy="36" r="8" fill="#e0605a" />
    <circle cx="62" cy="36" r="8" fill="#e0b65a" />
    <circle cx="90" cy="36" r="8" fill="#6dbf95" />
    <text x="130" y="42" fill="#8a8a92" font-family="ui-monospace, monospace" font-size="20" letter-spacing="1">basel3-credit-scoring-engine — Streamlit</text>
    <g>
        <rect x="1380" y="22" width="72" height="28" rx="14" fill="none" stroke="#6dbf95" stroke-width="1.5" />
        <circle cx="1396" cy="36" r="4" fill="#6dbf95" />
        <text x="1408" y="40" fill="#6dbf95" font-family="ui-monospace, monospace" font-size="14" letter-spacing="1">LIVE</text>
      </g>
    <line x1="0" y1="72" x2="1600" y2="72" stroke="#2a2a35" stroke-width="1" />
  
    <text x="120" y="122" fill="#ebe9e2" font-family="ui-monospace, monospace" font-size="28" font-weight="600">Credit Loss Distribution</text>
    <text x="120" y="150" fill="#8a8a92" font-family="ui-monospace, monospace" font-size="16">Expected loss → unexpected loss → regulatory capital (VaR 99.9%)</text>
    <path d="M120 760 L120.0 755.0 L128.5 754.2 L137.0 753.2 L145.5 752.2 L154.0 751.0 L162.5 749.7 L171.0 748.2 L179.5 746.6 L188.0 744.7 L196.5 742.6 L205.0 740.3 L213.5 737.7 L222.0 734.8 L230.5 731.6 L239.0 728.1 L247.5 724.2 L256.0 720.0 L264.5 715.3 L273.0 710.2 L281.5 704.7 L290.0 698.7 L298.5 692.2 L307.0 685.3 L315.5 677.7 L324.0 669.7 L332.5 661.0 L341.0 651.8 L349.5 642.0 L358.0 631.6 L366.5 620.6 L375.0 609.1 L383.5 596.9 L392.0 584.2 L400.5 570.9 L409.0 557.1 L417.5 542.8 L426.0 528.0 L434.5 512.8 L443.0 497.2 L451.5 481.2 L460.0 465.0 L468.5 448.5 L477.0 431.9 L485.5 415.2 L494.0 398.4 L502.5 381.7 L511.0 365.2 L519.5 348.9 L528.0 332.9 L536.5 317.4 L545.0 302.3 L553.5 287.8 L562.0 273.9 L570.5 260.8 L579.0 248.6 L587.5 237.2 L596.0 226.8 L604.5 217.5 L613.0 209.3 L621.5 202.3 L630.0 196.4 L638.5 191.9 L647.0 188.6 L655.5 186.6 L664.0 185.9 L672.5 186.0 L681.0 186.4 L689.5 187.0 L698.0 187.9 L706.5 189.0 L715.0 190.4 L723.5 192.0 L732.0 193.8 L740.5 195.9 L749.0 198.2 L757.5 200.8 L766.0 203.6 L774.5 206.6 L783.0 209.8 L791.5 213.3 L800.0 216.9 L808.5 220.8 L817.0 224.9 L825.5 229.2 L834.0 233.7 L842.5 238.3 L851.0 243.2 L859.5 248.2 L868.0 253.4 L876.5 258.7 L885.0 264.3 L893.5 269.9 L902.0 275.7 L910.5 281.7 L919.0 287.8 L927.5 294.0 L936.0 300.3 L944.5 306.8 L953.0 313.3 L961.5 319.9 L970.0 326.7 L978.5 333.5 L987.0 340.4 L995.5 347.3 L1004.0 354.3 L1012.5 361.4 L1021.0 368.5 L1029.5 375.7 L1038.0 382.9 L1046.5 390.1 L1055.0 397.3 L1063.5 404.5 L1072.0 411.8 L1080.5 419.1 L1089.0 426.3 L1097.5 433.5 L1106.0 440.8 L1114.5 447.9 L1123.0 455.1 L1131.5 462.2 L1140.0 469.3 L1148.5 476.4 L1157.0 483.4 L1165.5 490.3 L1174.0 497.2 L1182.5 504.0 L1191.0 510.7 L1199.5 517.4 L1208.0 524.0 L1216.5 530.5 L1225.0 536.9 L1233.5 543.3 L1242.0 549.5 L1250.5 555.7 L1259.0 561.8 L1267.5 567.7 L1276.0 573.6 L1284.5 579.4 L1293.0 585.1 L1301.5 590.6 L1310.0 596.1 L1318.5 601.4 L1327.0 606.7 L1335.5 611.8 L1344.0 616.9 L1352.5 621.8 L1361.0 626.6 L1369.5 631.3 L1378.0 635.8 L1386.5 640.3 L1395.0 644.7 L1403.5 648.9 L1412.0 653.1 L1420.5 657.1 L1429.0 661.0 L1437.5 664.8 L1446.0 668.5 L1454.5 672.1 L1463.0 675.6 L1471.5 679.0 L1480.0 682.3 L1480 760 Z" fill="rgba(168, 191, 245, 0.16)" />
    <path d="M1126.4 760 L1131.5 462.2 L1140.0 469.3 L1148.5 476.4 L1157.0 483.4 L1165.5 490.3 L1174.0 497.2 L1182.5 504.0 L1191.0 510.7 L1199.5 517.4 L1208.0 524.0 L1216.5 530.5 L1225.0 536.9 L1233.5 543.3 L1242.0 549.5 L1250.5 555.7 L1259.0 561.8 L1267.5 567.7 L1276.0 573.6 L1284.5 579.4 L1293.0 585.1 L1301.5 590.6 L1310.0 596.1 L1318.5 601.4 L1327.0 606.7 L1335.5 611.8 L1344.0 616.9 L1352.5 621.8 L1361.0 626.6 L1369.5 631.3 L1378.0 635.8 L1386.5 640.3 L1395.0 644.7 L1403.5 648.9 L1412.0 653.1 L1420.5 657.1 L1429.0 661.0 L1437.5 664.8 L1446.0 668.5 L1454.5 672.1 L1463.0 675.6 L1471.5 679.0 L1480.0 682.3 L1480 760 Z" fill="rgba(214, 176, 105, 0.16)" />
    <path d="M120.0 755.0 L128.5 754.2 L137.0 753.2 L145.5 752.2 L154.0 751.0 L162.5 749.7 L171.0 748.2 L179.5 746.6 L188.0 744.7 L196.5 742.6 L205.0 740.3 L213.5 737.7 L222.0 734.8 L230.5 731.6 L239.0 728.1 L247.5 724.2 L256.0 720.0 L264.5 715.3 L273.0 710.2 L281.5 704.7 L290.0 698.7 L298.5 692.2 L307.0 685.3 L315.5 677.7 L324.0 669.7 L332.5 661.0 L341.0 651.8 L349.5 642.0 L358.0 631.6 L366.5 620.6 L375.0 609.1 L383.5 596.9 L392.0 584.2 L400.5 570.9 L409.0 557.1 L417.5 542.8 L426.0 528.0 L434.5 512.8 L443.0 497.2 L451.5 481.2 L460.0 465.0 L468.5 448.5 L477.0 431.9 L485.5 415.2 L494.0 398.4 L502.5 381.7 L511.0 365.2 L519.5 348.9 L528.0 332.9 L536.5 317.4 L545.0 302.3 L553.5 287.8 L562.0 273.9 L570.5 260.8 L579.0 248.6 L587.5 237.2 L596.0 226.8 L604.5 217.5 L613.0 209.3 L621.5 202.3 L630.0 196.4 L638.5 191.9 L647.0 188.6 L655.5 186.6 L664.0 185.9 L672.5 186.0 L681.0 186.4 L689.5 187.0 L698.0 187.9 L706.5 189.0 L715.0 190.4 L723.5 192.0 L732.0 193.8 L740.5 195.9 L749.0 198.2 L757.5 200.8 L766.0 203.6 L774.5 206.6 L783.0 209.8 L791.5 213.3 L800.0 216.9 L808.5 220.8 L817.0 224.9 L825.5 229.2 L834.0 233.7 L842.5 238.3 L851.0 243.2 L859.5 248.2 L868.0 253.4 L876.5 258.7 L885.0 264.3 L893.5 269.9 L902.0 275.7 L910.5 281.7 L919.0 287.8 L927.5 294.0 L936.0 300.3 L944.5 306.8 L953.0 313.3 L961.5 319.9 L970.0 326.7 L978.5 333.5 L987.0 340.4 L995.5 347.3 L1004.0 354.3 L1012.5 361.4 L1021.0 368.5 L1029.5 375.7 L1038.0 382.9 L1046.5 390.1 L1055.0 397.3 L1063.5 404.5 L1072.0 411.8 L1080.5 419.1 L1089.0 426.3 L1097.5 433.5 L1106.0 440.8 L1114.5 447.9 L1123.0 455.1 L1131.5 462.2 L1140.0 469.3 L1148.5 476.4 L1157.0 483.4 L1165.5 490.3 L1174.0 497.2 L1182.5 504.0 L1191.0 510.7 L1199.5 517.4 L1208.0 524.0 L1216.5 530.5 L1225.0 536.9 L1233.5 543.3 L1242.0 549.5 L1250.5 555.7 L1259.0 561.8 L1267.5 567.7 L1276.0 573.6 L1284.5 579.4 L1293.0 585.1 L1301.5 590.6 L1310.0 596.1 L1318.5 601.4 L1327.0 606.7 L1335.5 611.8 L1344.0 616.9 L1352.5 621.8 L1361.0 626.6 L1369.5 631.3 L1378.0 635.8 L1386.5 640.3 L1395.0 644.7 L1403.5 648.9 L1412.0 653.1 L1420.5 657.1 L1429.0 661.0 L1437.5 664.8 L1446.0 668.5 L1454.5 672.1 L1463.0 675.6 L1471.5 679.0 L1480.0 682.3" fill="none" stroke="#a8bff5" stroke-width="3" opacity="0.9" />
    <line x1="1126.4" y1="760" x2="1126.4" y2="221.8" stroke="#d6b069" stroke-width="2" stroke-dasharray="8 6" />
    <text x="1140.4" y="239.8" fill="#d6b069" font-family="ui-monospace, monospace" font-size="16">VaR · 99.9%</text>
    <line x1="120" y1="760" x2="1480" y2="760" stroke="#2a2a35" stroke-width="1.5" />
    <text x="120" y="796" fill="#8a8a92" font-family="ui-monospace, monospace" font-size="16">Risk-weight assignment</text>
    <text x="596" y="796" fill="#8a8a92" font-family="ui-monospace, monospace" font-size="16">Exposure segmentation</text>
    <text x="1044.8000000000002" y="796" fill="#8a8a92" font-family="ui-monospace, monospace" font-size="16">RWA computation</text>
  
  <rect x="0.5" y="0.5" width="1599" height="899" rx="13.5" fill="none" stroke="#2a2a35" stroke-width="1" />
</svg>
